<svg data-v-423bf9ae="" xmlns="http://www.w3.org/2000/svg" viewBox="0 0 539 90" class="iconLeft"><!----><!----><!----><g data-v-423bf9ae="" id="2918b05d-764c-455c-bc39-03c8ad83147c" fill="white" transform="matrix(5.424954586220476,0,0,5.424954586220476,107.72150909730757,-0.5696204721274611)"><path d="M5.60 13.93L5.60 13.93Q3.08 13.93 1.75 12.50L1.75 12.50L1.75 12.50Q0.42 11.06 0.42 8.50L0.42 8.50L0.42 8.50Q0.42 6.85 1.06 5.58L1.06 5.58L1.06 5.58Q1.69 4.31 2.86 3.61L2.86 3.61L2.86 3.61Q4.03 2.90 5.60 2.90L5.60 2.90L5.60 2.90Q6.89 2.90 7.87 3.31L7.87 3.31L7.87 3.31Q8.85 3.72 9.46 4.48L9.46 4.48L9.46 4.48Q9.72 4.77 9.72 5.31L9.72 5.31L9.72 5.31Q9.72 5.84 9.35 6.21L9.35 6.21L9.35 6.21Q8.97 6.58 8.44 6.58L8.44 6.58L8.44 6.58Q8.11 6.58 7.81 6.41L7.81 6.41L7.81 6.41Q7.50 6.24 7.34 5.96L7.34 5.96L7.34 5.96Q6.78 5.01 5.60 5.01L5.60 5.01L5.60 5.01Q4.54 5.01 3.89 5.84L3.89 5.84L3.89 5.84Q3.25 6.68 3.25 8.37L3.25 8.37L3.25 8.37Q3.25 10.11 3.91 10.96L3.91 10.96L3.91 10.96Q4.56 11.82 5.60 11.82L5.60 11.82L5.60 11.82Q6.83 11.82 7.42 10.75L7.42 10.75L7.42 10.75Q7.59 10.44 7.90 10.25L7.90 10.25L7.90 10.25Q8.20 10.07 8.57 10.07L8.57 10.07L8.57 10.07Q9.10 10.07 9.48 10.45L9.48 10.45L9.48 10.45Q9.87 10.84 9.87 11.38L9.87 11.38L9.87 11.38Q9.87 11.80 9.62 12.17L9.62 12.17L9.62 12.17Q8.33 13.93 5.60 13.93L5.60 13.93ZM12.25 13.69L12.25 13.69Q11.68 13.69 11.37 13.38L11.37 13.38L11.37 13.38Q11.06 13.08 11.06 12.50L11.06 12.50L11.06 4.35L11.06 4.35Q11.06 3.79 11.45 3.40L11.45 3.40L11.45 3.40Q11.84 3.01 12.40 3.01L12.40 3.01L12.40 3.01Q12.96 3.01 13.36 3.40L13.36 3.40L13.36 3.40Q13.75 3.79 13.75 4.35L13.75 4.35L13.75 11.49L17.44 11.49L17.44 11.49Q17.89 11.49 18.21 11.82L18.21 11.82L18.21 11.82Q18.54 12.14 18.54 12.59L18.54 12.59L18.54 12.59Q18.54 13.05 18.21 13.37L18.21 13.37L18.21 13.37Q17.89 13.69 17.44 13.69L17.44 13.69L12.25 13.69ZM20.90 13.80L20.90 13.80Q20.34 13.80 19.95 13.41L19.95 13.41L19.95 13.41Q19.56 13.02 19.56 12.46L19.56 12.46L19.56 4.35L19.56 4.35Q19.56 3.79 19.95 3.40L19.95 3.40L19.95 3.40Q20.34 3.01 20.90 3.01L20.90 3.01L20.90 3.01Q21.46 3.01 21.85 3.40L21.85 3.40L21.85 3.40Q22.25 3.79 22.25 4.35L22.25 4.35L22.25 12.46L22.25 12.46Q22.25 13.02 21.85 13.41L21.85 13.41L21.85 13.41Q21.46 13.80 20.90 13.80L20.90 13.80ZM25.34 13.80L25.34 13.80Q24.78 13.80 24.39 13.41L24.39 13.41L24.39 13.41Q24.00 13.02 24.00 12.46L24.00 12.46L24.00 4.31L24.00 4.31Q24.00 3.74 24.30 3.43L24.30 3.43L24.30 3.43Q24.61 3.12 25.19 3.12L25.19 3.12L28.32 3.12L28.32 3.12Q29.54 3.12 30.47 3.55L30.47 3.55L30.47 3.55Q31.40 3.98 31.92 4.80L31.92 4.80L31.92 4.80Q32.44 5.63 32.44 6.78L32.44 6.78L32.44 6.78Q32.44 7.90 31.93 8.73L31.93 8.73L31.93 8.73Q31.42 9.56 30.48 10.01L30.48 10.01L30.48 10.01Q29.55 10.46 28.31 10.46L28.31 10.46L26.68 10.46L26.68 12.46L26.68 12.46Q26.68 13.02 26.29 13.41L26.29 13.41L26.29 13.41Q25.90 13.80 25.34 13.80L25.34 13.80ZM26.68 8.40L27.93 8.40L27.93 8.40Q28.80 8.40 29.30 8.02L29.30 8.02L29.30 8.02Q29.79 7.64 29.79 6.82L29.79 6.82L29.79 6.82Q29.79 5.98 29.30 5.58L29.30 5.58L29.30 5.58Q28.80 5.18 27.94 5.18L27.94 5.18L26.68 5.18L26.68 8.40ZM37.32 13.93L37.32 13.93Q36.16 13.93 35.22 13.59L35.22 13.59L35.22 13.59Q34.29 13.26 33.66 12.67L33.66 12.67L33.66 12.67Q33.49 12.50 33.39 12.24L33.39 12.24L33.39 12.24Q33.29 11.98 33.29 11.70L33.29 11.70L33.29 11.70Q33.29 11.17 33.67 10.80L33.67 10.80L33.67 10.80Q34.05 10.43 34.57 10.43L34.57 10.43L34.57 10.43Q34.90 10.43 35.18 10.59L35.18 10.59L35.18 10.59Q35.46 10.75 35.63 11.02L35.63 11.02L35.63 11.02Q35.91 11.44 36.36 11.66L36.36 11.66L36.36 11.66Q36.81 11.87 37.38 11.87L37.38 11.87L37.38 11.87Q38.22 11.87 38.64 11.56L38.64 11.56L38.64 11.56Q39.06 11.26 39.06 10.72L39.06 10.72L39.06 10.72Q39.06 10.32 38.78 10.04L38.78 10.04L38.78 10.04Q38.50 9.77 37.79 9.62L37.79 9.62L36.06 9.25L36.06 9.25Q34.58 8.93 33.86 8.17L33.86 8.17L33.86 8.17Q33.14 7.41 33.14 6.12L33.14 6.12L33.14 6.12Q33.14 5.19 33.63 4.45L33.63 4.45L33.63 4.45Q34.13 3.71 35.08 3.29L35.08 3.29L35.08 3.29Q36.04 2.87 37.35 2.87L37.35 2.87L37.35 2.87Q39.49 2.87 40.68 3.99L40.68 3.99L40.68 3.99Q41.03 4.33 41.03 4.91L41.03 4.91L41.03 4.91Q41.03 5.42 40.68 5.78L40.68 5.78L40.68 5.78Q40.32 6.15 39.82 6.15L39.82 6.15L39.82 6.15Q39.49 6.15 39.22 5.99L39.22 5.99L39.22 5.99Q38.95 5.82 38.78 5.57L38.78 5.57L38.78 5.57Q38.35 4.87 37.34 4.87L37.34 4.87L37.34 4.87Q36.57 4.87 36.20 5.15L36.20 5.15L36.20 5.15Q35.84 5.43 35.84 5.84L35.84 5.84L35.84 5.84Q35.84 6.26 36.13 6.54L36.13 6.54L36.13 6.54Q36.41 6.82 37.17 6.97L37.17 6.97L38.88 7.34L38.88 7.34Q40.45 7.67 41.16 8.46L41.16 8.46L41.16 8.46Q41.87 9.24 41.87 10.47L41.87 10.47L41.87 10.47Q41.87 11.42 41.42 12.20L41.42 12.20L41.42 12.20Q40.96 12.98 39.94 13.45L39.94 13.45L39.94 13.45Q38.92 13.93 37.32 13.93L37.32 13.93ZM46.72 13.80L46.72 13.80Q46.16 13.80 45.77 13.41L45.77 13.41L45.77 13.41Q45.37 13.02 45.37 12.46L45.37 12.46L45.37 5.25L43.36 5.25L43.36 5.25Q42.92 5.25 42.61 4.94L42.61 4.94L42.61 4.94Q42.29 4.62 42.29 4.19L42.29 4.19L42.29 4.19Q42.29 3.74 42.61 3.43L42.61 3.43L42.61 3.43Q42.92 3.12 43.36 3.12L43.36 3.12L50.08 3.12L50.08 3.12Q50.53 3.12 50.83 3.43L50.83 3.43L50.83 3.43Q51.14 3.74 51.14 4.19L51.14 4.19L51.14 4.19Q51.14 4.62 50.83 4.94L50.83 4.94L50.83 4.94Q50.53 5.25 50.08 5.25L50.08 5.25L48.06 5.25L48.06 12.46L48.06 12.46Q48.06 13.02 47.67 13.41L47.67 13.41L47.67 13.41Q47.28 13.80 46.72 13.80L46.72 13.80ZM51.31 13.80L51.31 13.80Q50.81 13.80 50.45 13.45L50.45 13.45L50.45 13.45Q50.09 13.09 50.09 12.59L50.09 12.59L50.09 12.59Q50.09 12.40 50.16 12.19L50.16 12.19L52.82 4.49L52.82 4.49Q53.05 3.84 53.62 3.42L53.62 3.42L53.62 3.42Q54.19 3.01 54.92 3.01L54.92 3.01L54.92 3.01Q55.64 3.01 56.21 3.42L56.21 3.42L56.21 3.42Q56.78 3.84 57.01 4.49L57.01 4.49L59.64 12.11L59.64 12.11Q59.71 12.35 59.71 12.53L59.71 12.53L59.71 12.53Q59.71 13.05 59.34 13.43L59.34 13.43L59.34 13.43Q58.97 13.80 58.44 13.80L58.44 13.80L58.44 13.80Q58.02 13.80 57.68 13.56L57.68 13.56L57.68 13.56Q57.34 13.31 57.22 12.92L57.22 12.92L56.76 11.45L52.95 11.45L52.49 12.95L52.49 12.95Q52.37 13.33 52.05 13.57L52.05 13.57L52.05 13.57Q51.73 13.80 51.31 13.80L51.31 13.80ZM53.61 9.38L56.10 9.38L55.43 7.24L55.43 7.24Q55.22 6.57 55.08 6.01L55.08 6.01L54.94 5.46L54.77 5.46L54.63 6.01L54.63 6.01Q54.49 6.57 54.28 7.24L54.28 7.24L53.61 9.38ZM64.51 13.93L64.51 13.93Q63.35 13.93 62.41 13.59L62.41 13.59L62.41 13.59Q61.47 13.26 60.84 12.67L60.84 12.67L60.84 12.67Q60.68 12.50 60.58 12.24L60.58 12.24L60.58 12.24Q60.48 11.98 60.48 11.70L60.48 11.70L60.48 11.70Q60.48 11.17 60.86 10.80L60.86 10.80L60.86 10.80Q61.24 10.43 61.75 10.43L61.75 10.43L61.75 10.43Q62.09 10.43 62.37 10.59L62.37 10.59L62.37 10.59Q62.65 10.75 62.82 11.02L62.82 11.02L62.82 11.02Q63.10 11.44 63.55 11.66L63.55 11.66L63.55 11.66Q63.99 11.87 64.57 11.87L64.57 11.87L64.57 11.87Q65.41 11.87 65.83 11.56L65.83 11.56L65.83 11.56Q66.25 11.26 66.25 10.72L66.25 10.72L66.25 10.72Q66.25 10.32 65.97 10.04L65.97 10.04L65.97 10.04Q65.69 9.77 64.97 9.62L64.97 9.62L63.25 9.25L63.25 9.25Q61.77 8.93 61.05 8.17L61.05 8.17L61.05 8.17Q60.33 7.41 60.33 6.12L60.33 6.12L60.33 6.12Q60.33 5.19 60.82 4.45L60.82 4.45L60.82 4.45Q61.32 3.71 62.27 3.29L62.27 3.29L62.27 3.29Q63.22 2.87 64.54 2.87L64.54 2.87L64.54 2.87Q66.68 2.87 67.87 3.99L67.87 3.99L67.87 3.99Q68.22 4.33 68.22 4.91L68.22 4.91L68.22 4.91Q68.22 5.42 67.87 5.78L67.87 5.78L67.87 5.78Q67.51 6.15 67.00 6.15L67.00 6.15L67.00 6.15Q66.68 6.15 66.41 5.99L66.41 5.99L66.41 5.99Q66.14 5.82 65.97 5.57L65.97 5.57L65.97 5.57Q65.53 4.87 64.53 4.87L64.53 4.87L64.53 4.87Q63.76 4.87 63.39 5.15L63.39 5.15L63.39 5.15Q63.03 5.43 63.03 5.84L63.03 5.84L63.03 5.84Q63.03 6.26 63.32 6.54L63.32 6.54L63.32 6.54Q63.60 6.82 64.36 6.97L64.36 6.97L66.07 7.34L66.07 7.34Q67.63 7.67 68.35 8.46L68.35 8.46L68.35 8.46Q69.06 9.24 69.06 10.47L69.06 10.47L69.06 10.47Q69.06 11.42 68.61 12.20L68.61 12.20L68.61 12.20Q68.15 12.98 67.13 13.45L67.13 13.45L67.13 13.45Q66.11 13.93 64.51 13.93L64.51 13.93ZM71.55 13.80L71.55 13.80Q70.99 13.80 70.60 13.41L70.60 13.41L70.60 13.41Q70.21 13.02 70.21 12.46L70.21 12.46L70.21 4.35L70.21 4.35Q70.21 3.79 70.60 3.40L70.60 3.40L70.60 3.40Q70.99 3.01 71.55 3.01L71.55 3.01L71.55 3.01Q72.11 3.01 72.51 3.40L72.51 3.40L72.51 3.40Q72.90 3.79 72.90 4.35L72.90 4.35L72.90 7.20L76.76 7.20L76.76 4.35L76.76 4.35Q76.76 3.79 77.15 3.40L77.15 3.40L77.15 3.40Q77.55 3.01 78.11 3.01L78.11 3.01L78.11 3.01Q78.67 3.01 79.06 3.40L79.06 3.40L79.06 3.40Q79.45 3.79 79.45 4.35L79.45 4.35L79.45 12.46L79.45 12.46Q79.45 13.02 79.06 13.41L79.06 13.41L79.06 13.41Q78.67 13.80 78.11 13.80L78.11 13.80L78.11 13.80Q77.55 13.80 77.15 13.41L77.15 13.41L77.15 13.41Q76.76 13.02 76.76 12.46L76.76 12.46L76.76 9.38L72.90 9.38L72.90 12.46L72.90 12.46Q72.90 13.02 72.51 13.41L72.51 13.41L72.51 13.41Q72.11 13.80 71.55 13.80L71.55 13.80Z"></path></g><!----><g data-v-423bf9ae="" id="d1f42608-256b-4edc-bff6-6898fbb2f23a" transform="matrix(1.125,0,0,1.125,-11.25,-11.25)" stroke="none" fill="white"><path d="M50 10c-22.091 0-40 17.909-40 40s17.909 40 40 40 40-17.909 40-40-17.909-40-40-40zM35 27.281c12.102 6.867 24.07 13.934 36.031 21 1.191.695 1.21 2.722.031 3.438C59.174 59.019 47.07 65.878 35 72.75c-1.215.701-3.013-.348-3-1.75V29c.575-1.753 1.487-2.205 3-1.719zm1 5.188v35.094c.67-.382 1.33-.775 2-1.157V33.625c-.667-.383-1.332-.775-2-1.156z" overflow="visible" color="#000"></path></g><!----></svg>