<svg data-v-423bf9ae="" xmlns="http://www.w3.org/2000/svg" viewBox="0 0 376 90" class="iconLeft"><!----><!----><!----><g data-v-423bf9ae="" id="01965acc-c930-4bb1-a9cf-894efe3fb76c" fill="white" transform="matrix(4.6047583445589515,0,0,4.6047583445589515,101.81108214275756,-0.14965525477852282)"><path d="M5.39 3.72C2.72 3.72 0.71 5.64 0.71 8.81C0.71 11.89 2.56 13.78 5.25 13.78C7.73 13.78 9.30 12.43 9.51 10.37L9.52 10.23L7.60 10.23L7.57 10.37C7.32 11.58 6.59 12.33 5.33 12.33C3.86 12.33 2.76 11.10 2.76 8.69C2.76 6.50 3.81 5.17 5.36 5.17C6.65 5.17 7.38 5.87 7.62 7.06L7.64 7.20L9.58 7.20L9.56 7.06C9.37 5.15 8.01 3.72 5.39 3.72ZM12.81 3.29L10.88 3.29L10.88 11.19C10.88 11.68 10.88 12.03 10.91 12.36C10.95 13.33 11.55 13.68 12.50 13.68C12.94 13.68 13.31 13.66 13.69 13.62L13.69 12.29C13.03 12.33 12.87 12.21 12.82 11.83C12.81 11.63 12.81 11.44 12.81 11.14ZM15.81 3.36C15.18 3.36 14.74 3.78 14.74 4.38C14.74 5.00 15.18 5.40 15.81 5.40C16.44 5.40 16.87 5.00 16.87 4.38C16.87 3.78 16.44 3.36 15.81 3.36ZM16.77 13.58L16.77 6.13L14.84 6.13L14.84 13.58ZM22.99 5.94C22.23 5.94 21.48 6.12 21.06 6.45L20.50 7.27L20.50 6.13L18.56 6.13L18.56 16.32L20.50 16.32L20.50 12.59L20.99 13.36C21.36 13.62 22.12 13.78 22.74 13.78C24.65 13.78 26.31 12.40 26.31 9.72C26.31 7.52 25.07 5.94 22.99 5.94ZM22.36 12.42C21.46 12.42 20.50 11.82 20.50 10.12L20.50 9.77C20.50 7.95 21.36 7.29 22.43 7.29C23.58 7.29 24.30 8.32 24.30 9.84C24.30 11.56 23.48 12.42 22.36 12.42ZM31.89 13.58L33.78 13.58C33.67 12.75 33.64 12.25 33.64 11.69L33.64 9.28C33.64 8.88 33.63 8.48 33.60 8.13C33.49 6.85 32.70 5.94 30.62 5.94C28.84 5.94 27.48 6.89 27.43 8.57L29.30 8.55C29.36 7.74 29.78 7.29 30.55 7.29C31.30 7.29 31.64 7.67 31.70 8.19C31.72 8.44 31.72 8.67 31.72 8.89L31.72 9.04L31.25 9.04C28.55 9.04 27.15 9.97 27.15 11.61C27.15 13.02 28.25 13.78 29.54 13.78C30.24 13.78 30.87 13.64 31.39 13.29L31.75 12.49ZM30.28 12.42C29.60 12.42 29.15 12.11 29.15 11.45C29.15 10.47 30.18 10.12 31.72 10.23L31.72 10.84C31.72 11.87 31.07 12.42 30.28 12.42ZM42.38 8.02C42.22 6.72 41.31 5.94 39.73 5.94C39.02 5.94 38.47 6.08 37.94 6.45L37.37 7.34L37.37 6.13L35.43 6.13L35.43 13.58L37.37 13.58L37.37 10.18C37.37 8.11 38.11 7.29 39.05 7.29C39.98 7.29 40.42 7.83 40.47 8.61C40.50 8.99 40.50 9.34 40.50 9.65L40.50 13.58L42.43 13.58L42.43 9.38C42.43 8.78 42.42 8.40 42.38 8.02ZM51.37 3.29L49.43 3.29L49.43 7.13L48.94 6.36C48.57 6.09 47.81 5.94 47.19 5.94C45.28 5.94 43.62 7.29 43.62 10.00C43.62 12.19 44.86 13.78 46.94 13.78C47.70 13.78 48.45 13.58 48.87 13.26L49.43 12.43L49.43 13.58L51.37 13.58ZM47.50 12.42C46.35 12.42 45.63 11.40 45.63 9.87C45.63 8.15 46.45 7.29 47.57 7.29C48.47 7.29 49.43 7.90 49.43 9.58L49.43 9.94C49.43 11.76 48.57 12.42 47.50 12.42ZM57.48 13.58L59.37 13.58C59.26 12.75 59.23 12.25 59.23 11.69L59.23 9.28C59.23 8.88 59.22 8.48 59.19 8.13C59.08 6.85 58.30 5.94 56.21 5.94C54.43 5.94 53.07 6.89 53.02 8.57L54.89 8.55C54.95 7.74 55.37 7.29 56.14 7.29C56.90 7.29 57.23 7.67 57.29 8.19C57.32 8.44 57.32 8.67 57.32 8.89L57.32 9.04L56.84 9.04C54.14 9.04 52.74 9.97 52.74 11.61C52.74 13.02 53.84 13.78 55.13 13.78C55.83 13.78 56.46 13.64 56.98 13.29L57.34 12.49ZM55.87 12.42C55.19 12.42 54.74 12.11 54.74 11.45C54.74 10.47 55.78 10.12 57.32 10.23L57.32 10.84C57.32 11.87 56.66 12.42 55.87 12.42Z"></path></g><!----><g data-v-423bf9ae="" id="dcd39ceb-fd18-45d7-8c06-e0d17c3d2a3f" transform="matrix(1.001535693497041,0,0,1.001535693497041,-6.551786968064064,-5.007784431443696)" stroke="none" fill="white"><path d="M92.475 18.308l-2.869-8.676-6.407-4.563-12.279 7.886-.049-.079-7.224-3.309L50 7.024v1.697l12.875 2.869 6.578 3.358L83.78 37.895l4.654 12.83-5.34 19.302-15.053 8.891-4.454 1.558 3.281-8.75v-5.929l5.873.095 4.407-4.06.278-8.71-2.868-2.835-6.087-8.327-6.795 2.514-1.092.539-.709 9.33-4.193-1.569L50 52.335h-.004l-5.296.471-4.577 1.558-.71-9.352-1.092-.539-6.795-2.514-6.088 8.327-2.868 2.835.28 8.71 4.409 4.06 5.871-.095v5.929l3.282 8.75-4.453-1.558-15.054-8.891-5.34-19.302 4.655-12.83 14.327-22.945 6.577-3.358L50 8.722V7.024L36.352 9.567l-7.226 3.309-.048.079-11.489-7.886-7.196 4.563-2.868 8.676 1.4 9.867 5.802 8.484-5.278 13.522L14.243 71.7l35.664 23.112v.119L50 94.87l.092.061v-.119L85.757 71.7l4.793-21.519-5.279-13.521 5.804-8.484 1.4-9.868zM50 86.662l-5.942-1.35-5.723-5.983 3.933 1.816 5.36-.243L50 79.499v-8.814l-5.263.033-2.855.647-2.518-2.31 2.518 5.354 7.515 1.466v1.997l-7.165 1.768-4.131-.558-.061-.063-3.086-7.602-.21-5.197 5.162-10.24 4.756-2.347 5.337-.769.001-.062v.064l5.724.735 4.368 2.38 5.162 10.24-.21 5.197-3.086 7.602-.061.063-4.131.558-7.164-1.768v-1.997l7.514-1.466 2.52-5.354-2.52 2.31-2.854-.647L50 70.686V79.5l2.37 1.403 5.361.243 3.932-1.816-5.722 5.983L50 86.662z"></path></g><!----></svg>